<svg xmlns="http://www.w3.org/2000/svg" xmlns:xlink="http://www.w3.org/1999/xlink" x="0px" y="0px"
	viewBox="0 0 43.2 17.83" style="enable-background:new 0 0 43.2 17.83;" xml:space="preserve">
<style type="text/css">
	.st0{fill:#838BC5;}
</style>
<g>
	<rect class="st0" width="43.2" height="17.83"/>
	<path d="M1.45,9.38c0-2.46,0.24-4.3,1.11-5.37c0.56-0.69,1.4-1.07,2.4-1.07c1.02,0,1.84,0.38,2.42,1.07
		c0.87,1.06,1.11,2.91,1.11,5.37s-0.24,4.3-1.11,5.37c-0.57,0.69-1.4,1.04-2.42,1.04c-1,0-1.84-0.35-2.4-1.04
		C1.69,13.69,1.45,11.84,1.45,9.38z M6.87,9.38c0-2.16-0.15-3.73-0.72-4.46C5.88,4.55,5.46,4.36,4.96,4.36
		c-0.48,0-0.9,0.19-1.19,0.57C3.24,5.65,3.07,7.22,3.07,9.38c0,2.16,0.17,3.73,0.71,4.47c0.29,0.35,0.71,0.54,1.19,0.54
		c0.5,0,0.92-0.19,1.19-0.54C6.72,13.12,6.87,11.54,6.87,9.38z M12.48,2.95v13.6h-1.63V2.95H12.48z"/>
	<path d="M15.73,6.79c0-1.38,0.42-2.44,1.14-3.1c0.61-0.54,1.44-0.83,2.43-0.83c1,0,1.83,0.29,2.43,0.83
		c0.74,0.66,1.14,1.72,1.14,3.1c0,1.4-0.4,2.46-1.14,3.12c-0.6,0.54-1.42,0.83-2.43,0.83c-0.99,0-1.81-0.29-2.43-0.83
		C16.15,9.25,15.73,8.18,15.73,6.79z M27.15,16.61H16.74v-4.62h1.63v3.21h8.77V16.61z M17.32,6.79c0,0.92,0.23,1.59,0.65,2.03
		c0.33,0.33,0.78,0.51,1.33,0.51s1-0.18,1.35-0.51c0.4-0.44,0.63-1.11,0.63-2.03c0-0.9-0.23-1.59-0.63-2.01
		c-0.35-0.33-0.79-0.51-1.35-0.51s-1,0.18-1.33,0.51C17.55,5.2,17.32,5.89,17.32,6.79z M26.91,12.47h-1.63V2.95h1.63V12.47z"/>
	<path d="M33.75,12.25c-0.6,1.56-2.19,2.82-3.93,3.39v-1.5c1.63-0.75,3.12-2.13,3.12-5.92v-5.1h1.62v5.1c0,3.79,1.48,5.16,3.1,5.92
		v1.5C35.95,15.05,34.36,13.79,33.75,12.25z M41.28,2.95v13.6h-1.63V9.28h-3.17V7.85h3.17V2.95H41.28z"/>
</g>
</svg>
